HIERARCHY
ROOT hips
{
	OFFSET -0.003675 0.299928 -0.021708
	CHANNELS 6 Xposition Yposition Zposition Xrotation Yrotation Zrotation
	JOINT LowerBack
	{
		OFFSET 0.000919 0.177588 0.009275
		CHANNELS 3 Xrotation Yrotation Zrotation
		JOINT spine
		{
			OFFSET 0.000919 0.177588 0.009275
			CHANNELS 3 Xrotation Yrotation Zrotation
			JOINT chest
			{
				OFFSET 0.000456 0.100015 0.004638
				CHANNELS 3 Xrotation Yrotation Zrotation
				JOINT neck
				{
					OFFSET 0.000456 0.100015 0.004638
					CHANNELS 3 Xrotation Yrotation Zrotation
					JOINT head
					{
						OFFSET 0.000924 0.155147 0.009274
						CHANNELS 6 Xposition Yposition Zposition Xrotation Yrotation Zrotation
						End Site
						{
							OFFSET 0.000000 0.153400 0.000000
						}
					}
				}
				JOINT shoulder.L
				{
					OFFSET 0.019937 0.078966 0.057518
					CHANNELS 6 Xposition Yposition Zposition Yrotation Xrotation Zrotation
					JOINT upper_arm.L
					{
						OFFSET 0.177024 -0.020465 -0.095062
						CHANNELS 6 Xposition Yposition Zposition Xrotation Yrotation Zrotation
						JOINT forearm.L
						{
							OFFSET 0.247100 -0.135500 -0.061800
							CHANNELS 3 Xrotation Yrotation Zrotation
							JOINT hand.L
							{
								OFFSET 0.217000 -0.143000 0.039300
								CHANNELS 3 Xrotation Yrotation Zrotation
								JOINT palm.01.L
								{
									OFFSET 0.021770 -0.038291 0.012954
									CHANNELS 6 Xposition Yposition Zposition Yrotation Xrotation Zrotation
									JOINT f_index.01.L
									{
										OFFSET 0.053215 -0.044137 0.008236
										CHANNELS 3 Xrotation Yrotation Zrotation
										JOINT f_index.02.L
										{
											OFFSET 0.036108 -0.024723 -0.010656
											CHANNELS 3 Xrotation Yrotation Zrotation
											JOINT f_index.03.L
											{
												OFFSET 0.021342 -0.014948 -0.010846
												CHANNELS 3 Xrotation Yrotation Zrotation
												End Site
												{
													OFFSET 0.015600 -0.009860 -0.013421
												}
											}
										}
									}
									JOINT thumb.01.L
									{
										OFFSET -0.009090 -0.002348 -0.024223
										CHANNELS 6 Xposition Yposition Zposition Xrotation Yrotation Zrotation
										JOINT thumb.02.L
										{
											OFFSET 0.019713 -0.035076 -0.011120
											CHANNELS 3 Xrotation Yrotation Zrotation
											JOINT thumb.03.L
											{
												OFFSET 0.024877 -0.021748 -0.005176
												CHANNELS 3 Xrotation Yrotation Zrotation
												End Site
												{
													OFFSET 0.016125 -0.013029 -0.001569
												}
											}
										}
									}
								}
								JOINT palm.02.L
								{
									OFFSET 0.032823 -0.025104 0.012281
									CHANNELS 6 Xposition Yposition Zposition Yrotation Xrotation Zrotation
									JOINT f_middle.01.L
									{
										OFFSET 0.055723 -0.038469 0.008037
										CHANNELS 3 Xrotation Yrotation Zrotation
										JOINT f_middle.02.L
										{
											OFFSET 0.038167 -0.027473 -0.015582
											CHANNELS 3 Xrotation Yrotation Zrotation
											JOINT f_middle.03.L
											{
												OFFSET 0.021707 -0.016587 -0.017037
												CHANNELS 3 Xrotation Yrotation Zrotation
												End Site
												{
													OFFSET 0.014112 -0.010584 -0.014294
												}
											}
										}
									}
								}
								JOINT palm.03.L
								{
									OFFSET 0.039230 -0.011402 0.008390
									CHANNELS 6 Xposition Yposition Zposition Yrotation Xrotation Zrotation
									JOINT f_ring.01.L
									{
										OFFSET 0.061796 -0.031470 0.007910
										CHANNELS 3 Xrotation Yrotation Zrotation
										JOINT f_ring.02.L
										{
											OFFSET 0.033092 -0.023401 -0.019127
											CHANNELS 3 Xrotation Yrotation Zrotation
											JOINT f_ring.03.L
											{
												OFFSET 0.021392 -0.015362 -0.017824
												CHANNELS 3 Xrotation Yrotation Zrotation
												End Site
												{
													OFFSET 0.008670 -0.007297 -0.014686
												}
											}
										}
									}
								}
								JOINT palm.04.L
								{
									OFFSET 0.043417 0.002450 0.002889
									CHANNELS 6 Xposition Yposition Zposition Yrotation Xrotation Zrotation
									JOINT f_pinky.01.L
									{
										OFFSET 0.069986 -0.026156 0.003627
										CHANNELS 3 Xrotation Yrotation Zrotation
										JOINT f_pinky.02.L
										{
											OFFSET 0.018520 -0.012813 -0.016429
											CHANNELS 3 Xrotation Yrotation Zrotation
											JOINT f_pinky.03.L
											{
												OFFSET 0.013822 -0.009796 -0.014947
												CHANNELS 3 Xrotation Yrotation Zrotation
												End Site
												{
													OFFSET 0.007238 -0.006103 -0.011657
												}
											}
										}
									}
								}
							}
						}
					}
				}
				JOINT shoulder.R
				{
					OFFSET -0.016662 0.078957 0.057696
					CHANNELS 6 Xposition Yposition Zposition Yrotation Xrotation Zrotation
					JOINT upper_arm.R
					{
						OFFSET -0.176972 -0.020537 -0.095144
						CHANNELS 6 Xposition Yposition Zposition Xrotation Yrotation Zrotation
						JOINT forearm.R
						{
							OFFSET -0.247100 -0.135500 -0.061800
							CHANNELS 3 Xrotation Yrotation Zrotation
							JOINT hand.R
							{
								OFFSET -0.217000 -0.143000 0.039300
								CHANNELS 3 Xrotation Yrotation Zrotation
								JOINT palm.01.R
								{
									OFFSET -0.021773 -0.038278 0.012988
									CHANNELS 6 Xposition Yposition Zposition Yrotation Xrotation Zrotation
									JOINT f_index.01.R
									{
										OFFSET -0.053212 -0.044139 0.008249
										CHANNELS 3 Xrotation Yrotation Zrotation
										JOINT f_index.02.R
										{
											OFFSET -0.036049 -0.024835 -0.010634
											CHANNELS 3 Xrotation Yrotation Zrotation
											JOINT f_index.03.R
											{
												OFFSET -0.021371 -0.014881 -0.010866
												CHANNELS 3 Xrotation Yrotation Zrotation
												End Site
												{
													OFFSET -0.015584 -0.009883 -0.013422
												}
											}
										}
									}
									JOINT thumb.01.R
									{
										OFFSET 0.009113 -0.002381 -0.024211
										CHANNELS 6 Xposition Yposition Zposition Xrotation Yrotation Zrotation
										JOINT thumb.02.R
										{
											OFFSET -0.019694 -0.035097 -0.011088
											CHANNELS 3 Xrotation Yrotation Zrotation
											JOINT thumb.03.R
											{
												OFFSET -0.024867 -0.021762 -0.005168
												CHANNELS 3 Xrotation Yrotation Zrotation
												End Site
												{
													OFFSET -0.016120 -0.013036 -0.001565
												}
											}
										}
									}
								}
								JOINT palm.02.R
								{
									OFFSET -0.032828 -0.025095 0.012286
									CHANNELS 6 Xposition Yposition Zposition Yrotation Xrotation Zrotation
									JOINT f_middle.01.R
									{
										OFFSET -0.055721 -0.038472 0.008040
										CHANNELS 3 Xrotation Yrotation Zrotation
										JOINT f_middle.02.R
										{
											OFFSET -0.038101 -0.027593 -0.015557
											CHANNELS 3 Xrotation Yrotation Zrotation
											JOINT f_middle.03.R
											{
												OFFSET -0.021730 -0.016530 -0.017054
												CHANNELS 3 Xrotation Yrotation Zrotation
												End Site
												{
													OFFSET -0.014096 -0.010608 -0.014293
												}
											}
										}
									}
								}
								JOINT palm.03.R
								{
									OFFSET -0.039192 -0.011488 0.008390
									CHANNELS 6 Xposition Yposition Zposition Yrotation Xrotation Zrotation
									JOINT f_ring.01.R
									{
										OFFSET -0.061839 -0.031387 0.007876
										CHANNELS 3 Xrotation Yrotation Zrotation
										JOINT f_ring.02.R
										{
											OFFSET -0.033068 -0.023437 -0.019125
											CHANNELS 3 Xrotation Yrotation Zrotation
											JOINT f_ring.03.R
											{
												OFFSET -0.021371 -0.015393 -0.017822
												CHANNELS 3 Xrotation Yrotation Zrotation
												End Site
												{
													OFFSET -0.008654 -0.007321 -0.014684
												}
											}
										}
									}
								}
								JOINT palm.04.R
								{
									OFFSET -0.043421 0.002443 0.002845
									CHANNELS 6 Xposition Yposition Zposition Yrotation Xrotation Zrotation
									JOINT f_pinky.01.R
									{
										OFFSET -0.069983 -0.026169 0.003599
										CHANNELS 3 Xrotation Yrotation Zrotation
										JOINT f_pinky.02.R
										{
											OFFSET -0.018501 -0.012842 -0.016428
											CHANNELS 3 Xrotation Yrotation Zrotation
											JOINT f_pinky.03.R
											{
												OFFSET -0.013806 -0.009821 -0.014946
												CHANNELS 3 Xrotation Yrotation Zrotation
												End Site
												{
													OFFSET -0.007226 -0.006121 -0.011655
												}
											}
										}
									}
								}
							}
						}
					}
				}
			}
		}
	}
	JOINT pelvis.L
	{
		OFFSET 0.000000 0.000000 0.000000
		CHANNELS 6 Xposition Yposition Zposition Xrotation Yrotation Zrotation
		JOINT thigh.L
		{
			OFFSET 0.101675 0.001054 -0.000000
			CHANNELS 3 Xrotation Yrotation Zrotation
			JOINT shin.L
			{
				OFFSET 0.000000 -0.534800 0.041000
				CHANNELS 3 Xrotation Yrotation Zrotation
				JOINT foot.L
				{
					OFFSET 0.000000 -0.452000 -0.044800
					CHANNELS 3 Xrotation Yrotation Zrotation
					JOINT toe.L
					{
						OFFSET -0.000000 -0.068500 0.109600
						CHANNELS 3 Xrotation Yrotation Zrotation
						End Site
						{
							OFFSET -0.000000 0.000000 0.067200
						}
					}
				}
				JOINT heel.L
				{
					OFFSET 0.000000 -0.452000 -0.044800
					CHANNELS 3 Xrotation Yrotation Zrotation
					JOINT heel.02.L
					{
						OFFSET -0.038000 -0.085200 0.016200
						CHANNELS 6 Xposition Yposition Zposition Xrotation Yrotation Zrotation
						End Site
						{
							OFFSET 0.080000 -0.000000 0.000000
						}
					}
				}
			}
		}
	}
	JOINT pelvis.R
	{
		OFFSET 0.000000 0.000000 0.000000
		CHANNELS 6 Xposition Yposition Zposition Xrotation Yrotation Zrotation
		JOINT thigh.R
		{
			OFFSET -0.094325 0.001054 0.000000
			CHANNELS 3 Xrotation Yrotation Zrotation
			JOINT shin.R
			{
				OFFSET 0.000000 -0.534800 0.041000
				CHANNELS 3 Xrotation Yrotation Zrotation
				JOINT foot.R
				{
					OFFSET 0.000000 -0.452000 -0.044800
					CHANNELS 3 Xrotation Yrotation Zrotation
					JOINT toe.R
					{
						OFFSET -0.000000 -0.068500 0.109600
						CHANNELS 3 Xrotation Yrotation Zrotation
						End Site
						{
							OFFSET -0.000000 0.000000 0.067200
						}
					}
				}
				JOINT heel.R
				{
					OFFSET 0.000000 -0.452000 -0.044800
					CHANNELS 3 Xrotation Yrotation Zrotation
					JOINT heel.02.R
					{
						OFFSET 0.038000 -0.085200 0.016200
						CHANNELS 6 Xposition Yposition Zposition Xrotation Yrotation Zrotation
						End Site
						{
							OFFSET -0.080000 0.000000 -0.000000
						}
					}
				}
			}
		}
	}
}
MOTION
Frames: 4
Frame Time: 0.041667
-0.003675 0.299928 -0.021708 0.000000 -0.000000 0.000000 -0.000001 0.000000 0.000000 -0.000000 0.000000 0.000000 -0.000000 0.000000 0.000000 -0.000000 -0.000000 -0.000000 0.000924 0.155147 0.009274 -0.000001 -0.000000 -0.000000 0.019937 0.078966 0.057518 0.000001 0.000001 -0.000005 0.177024 -0.020465 -0.095062 -0.000006 -0.000003 0.000015 -0.000009 -0.000004 -0.000009 -0.000000 0.000000 0.000001 0.021770 -0.038291 0.012954 0.000001 -0.000001 0.000001 -0.000001 -0.000001 -0.000002 -0.000001 -0.000000 0.000007 -0.000000 0.000000 0.000003 -0.009090 -0.002348 -0.024224 -0.000002 0.000001 0.000001 0.000001 -0.000001 0.000001 -0.000000 0.000000 -0.000001 0.032823 -0.025104 0.012281 0.000000 -0.000000 0.000000 0.000001 0.000004 -0.000003 -0.000001 -0.000000 -0.000000 -0.000001 -0.000003 0.000003 0.039230 -0.011402 0.008390 -0.000000 -0.000000 0.000008 0.000001 0.000001 -0.000000 -0.000001 0.000003 -0.000001 0.000002 0.000002 -0.000000 0.043417 0.002450 0.002889 -0.000000 0.000001 0.000002 -0.000001 -0.000003 0.000001 -0.000000 0.000003 -0.000000 -0.000000 -0.000003 0.000001 -0.016662 0.078956 0.057696 -0.000001 0.000002 0.000011 -0.176972 -0.020537 -0.095144 0.000001 -0.000003 -0.000005 -0.000006 0.000005 -0.000014 -0.000001 -0.000000 0.000000 -0.021773 -0.038278 0.012988 0.000000 -0.000001 -0.000003 -0.000001 0.000001 -0.000003 -0.000001 -0.000000 0.000001 0.000001 0.000002 0.000007 0.009113 -0.002381 -0.024211 0.000002 -0.000001 0.000004 -0.000000 0.000001 0.000002 0.000000 0.000000 -0.000003 -0.032828 -0.025095 0.012286 0.000001 -0.000001 -0.000001 -0.000001 0.000003 -0.000003 -0.000002 0.000004 -0.000001 0.000001 -0.000002 -0.000000 -0.039192 -0.011488 0.008390 0.000000 0.000000 0.000001 -0.000000 0.000003 -0.000003 -0.000001 0.000001 0.000002 -0.000001 0.000000 -0.000003 -0.043421 0.002443 0.002844 -0.000000 -0.000001 0.000000 -0.000007 0.000003 -0.000002 -0.000003 -0.000000 -0.000000 0.000001 -0.000000 0.000001 -0.000000 0.000000 -0.000000 -0.000001 -0.000000 0.000001 0.000009 -0.000202 0.000014 -0.000026 0.000202 -0.000015 0.000000 -0.000000 -0.000000 0.000002 -0.000000 -0.000000 0.000000 0.000000 -0.000000 -0.038000 -0.085200 0.016200 0.000000 0.000000 0.000000 0.000000 -0.000000 -0.000000 -0.000001 0.000000 -0.000004 0.000008 -0.000013 0.000005 -0.000012 0.000013 -0.000001 -0.000003 -0.000000 -0.000000 0.000000 -0.000000 -0.000000 0.000002 -0.000000 -0.000000 0.038000 -0.085200 0.016200 0.000002 -0.000000 0.000000 
-0.011400 0.279570 -0.022292 8.083922 35.227223 -8.202635 0.000000 0.000002 -0.000000 -0.000001 0.000006 -0.000000 0.000001 0.000004 -0.000000 0.000002 0.000002 -0.000000 0.000924 0.155148 0.009274 39.226757 -0.017213 -11.393267 0.019937 0.078966 0.057518 15.062078 4.628206 25.905062 0.177025 -0.020465 -0.095062 -11.725312 11.031347 -51.425143 -13.870267 -8.747027 -53.361867 -0.000003 0.000001 0.000006 0.021770 -0.038291 0.012954 0.000001 0.000001 -0.000001 -0.000006 0.000001 0.000003 -0.000004 0.000001 0.000005 -0.000001 0.000005 -0.000003 -0.009090 -0.002348 -0.024223 -0.000002 -0.000001 0.000001 0.000002 0.000002 -0.000002 -0.000000 0.000001 -0.000004 0.032823 -0.025104 0.012281 0.000000 0.000000 0.000004 0.000004 -0.000001 -0.000003 -0.000004 0.000001 0.000002 0.000002 -0.000002 0.000002 0.039230 -0.011402 0.008390 0.000001 0.000001 0.000004 -0.000001 -0.000001 0.000003 0.000001 0.000003 0.000004 0.000005 -0.000004 0.000000 0.043417 0.002450 0.002889 -0.000001 0.000003 -0.000004 -0.000003 -0.000006 -0.000000 0.000001 -0.000001 -0.000000 -0.000002 0.000002 -0.000003 -0.016662 0.078957 0.057696 8.339811 7.723431 -50.531891 -0.176972 -0.020537 -0.095144 -45.208735 46.595052 13.652079 26.393589 41.507596 -74.778154 0.000002 0.000002 -0.000002 -0.021773 -0.038278 0.012988 0.000004 0.000003 -0.000002 -0.000003 0.000005 -0.000001 -0.000002 -0.000002 -0.000003 0.000003 0.000000 0.000003 0.009113 -0.002381 -0.024212 -0.000001 0.000001 -0.000001 -0.000001 0.000003 0.000002 -0.000001 0.000000 -0.000001 -0.032828 -0.025095 0.012286 0.000004 0.000004 -0.000003 0.000003 0.000001 0.000002 0.000001 -0.000000 -0.000004 -0.000000 0.000000 -0.000003 -0.039192 -0.011488 0.008390 0.000004 0.000006 0.000002 0.000002 0.000003 -0.000002 -0.000000 -0.000000 -0.000002 0.000002 0.000001 0.000000 -0.043421 0.002443 0.002844 0.000004 0.000004 0.000004 -0.000001 -0.000001 -0.000001 0.000000 -0.000006 0.000000 -0.000003 -0.000001 -0.000003 -0.000000 0.000000 0.000000 -1.619429 -0.838672 9.294143 -39.040391 1.320064 19.851535 47.369230 1.244523 -12.659018 -0.000002 -0.000003 -0.000002 0.000000 -0.000002 0.000001 0.000000 -0.000002 0.000002 -0.038000 -0.085200 0.016200 0.000001 -0.000000 0.000001 0.000000 0.000000 0.000000 -1.609793 -0.836990 10.528454 1.757236 -0.612240 -8.227941 15.901628 -1.272293 12.948991 0.000000 0.000002 0.000000 -0.000000 0.000001 -0.000001 0.000010 0.000002 -0.000001 0.038000 -0.085200 0.016200 -0.000004 0.000003 -0.000001 
-0.010993 0.280492 -0.023402 8.465657 32.277551 -11.791112 0.000000 -0.000002 0.000000 -0.000001 -0.000006 0.000000 -0.000000 0.000003 -0.000000 -0.000001 0.000000 0.000001 0.000924 0.155147 0.009274 36.415102 -0.015556 -1.515747 0.019937 0.078966 0.057518 10.079390 3.414080 25.738209 0.177024 -0.020465 -0.095062 -6.446743 12.136018 -50.655097 -17.431167 -9.974899 -44.932908 -0.000002 0.000000 0.000001 0.021770 -0.038291 0.012954 0.000002 -0.000001 0.000001 0.000000 -0.000000 0.000005 -0.000002 -0.000004 0.000006 -0.000001 0.000001 0.000002 -0.009090 -0.002348 -0.024224 0.000002 0.000003 0.000003 -0.000000 0.000001 -0.000000 -0.000003 0.000000 -0.000001 0.032823 -0.025104 0.012281 0.000000 -0.000001 0.000002 -0.000001 0.000006 -0.000003 -0.000002 -0.000003 0.000001 0.000001 0.000002 0.000004 0.039230 -0.011402 0.008390 0.000002 -0.000003 0.000003 0.000003 0.000002 -0.000004 0.000003 0.000003 0.000001 0.000005 -0.000003 0.000003 0.043417 0.002450 0.002889 0.000002 -0.000000 -0.000003 -0.000001 -0.000003 -0.000002 0.000001 -0.000003 0.000001 -0.000003 -0.000001 0.000000 -0.016662 0.078957 0.057696 1.135465 7.025469 -45.790206 -0.176972 -0.020537 -0.095144 -40.702105 27.367511 18.302651 55.329645 15.447928 -111.320643 -0.000001 0.000002 0.000002 -0.021773 -0.038278 0.012988 0.000002 0.000001 -0.000003 -0.000000 0.000004 0.000006 0.000001 -0.000000 -0.000004 -0.000000 0.000003 -0.000002 0.009114 -0.002381 -0.024212 0.000001 -0.000004 -0.000001 -0.000002 -0.000007 0.000000 0.000000 -0.000003 -0.000003 -0.032828 -0.025095 0.012286 0.000001 0.000001 0.000001 0.000003 0.000003 0.000001 0.000002 0.000001 -0.000002 -0.000003 0.000006 -0.000003 -0.039192 -0.011488 0.008390 0.000001 0.000001 0.000001 0.000000 0.000004 -0.000005 0.000001 -0.000004 0.000002 0.000000 0.000001 0.000000 -0.043421 0.002442 0.002844 0.000001 0.000003 -0.000001 -0.000004 0.000002 -0.000001 0.000004 -0.000006 0.000000 0.000001 0.000003 -0.000000 0.000000 0.000000 -0.000000 -1.640537 -0.887782 9.837351 -40.005043 1.491037 22.301363 49.241542 1.005334 -10.195850 0.000000 0.000000 0.000001 0.000002 0.000002 0.000001 0.000005 0.000000 -0.000002 -0.038000 -0.085200 0.016200 -0.000002 0.000000 -0.000000 -0.000000 0.000000 -0.000000 -1.632057 -0.886228 11.071651 -1.961924 -0.541218 -7.557375 16.878036 -1.268117 12.905677 0.000003 -0.000003 0.000000 -0.000003 -0.000002 -0.000000 0.000007 -0.000004 0.000000 0.038000 -0.085200 0.016200 0.000001 -0.000003 -0.000000 
-0.009148 0.281883 -0.021684 9.659849 30.718486 -16.287959 -0.000000 0.000001 0.000000 0.000001 -0.000000 -0.000000 0.000001 -0.000001 -0.000002 0.000001 -0.000001 -0.000001 0.000924 0.155148 0.009274 22.500624 -0.022503 -0.013964 0.019937 0.078966 0.057518 12.947094 3.130214 22.519455 0.177025 -0.020465 -0.095062 0.518897 13.543809 -53.730376 -24.022315 -12.075535 -41.238947 0.000000 -0.000001 0.000005 0.021770 -0.038291 0.012954 0.000001 -0.000002 -0.000004 0.000003 -0.000003 -0.000001 -0.000002 0.000003 0.000005 0.000001 0.000000 -0.000001 -0.009090 -0.002348 -0.024223 0.000007 0.000000 0.000001 0.000000 -0.000001 0.000003 0.000002 0.000003 -0.000002 0.032823 -0.025104 0.012281 0.000001 -0.000002 0.000005 -0.000002 -0.000003 -0.000004 -0.000003 0.000001 0.000003 -0.000001 0.000004 -0.000003 0.039230 -0.011402 0.008390 0.000001 -0.000002 0.000004 0.000001 0.000000 0.000001 0.000001 0.000006 0.000003 -0.000000 0.000001 -0.000000 0.043417 0.002450 0.002889 0.000000 -0.000003 -0.000003 -0.000002 -0.000005 0.000001 0.000002 0.000004 0.000001 -0.000003 0.000002 -0.000001 -0.016662 0.078957 0.057696 3.019823 7.016392 -45.421311 -0.176972 -0.020537 -0.095144 -28.015744 17.057906 14.607753 48.067992 -0.214563 -115.609025 -0.000002 -0.000002 -0.000001 -0.021773 -0.038278 0.012988 0.000003 -0.000000 -0.000005 -0.000001 0.000004 0.000001 -0.000001 -0.000000 -0.000003 -0.000006 0.000002 0.000005 0.009114 -0.002381 -0.024212 -0.000000 0.000000 -0.000003 0.000000 -0.000001 0.000002 -0.000001 -0.000000 -0.000003 -0.032828 -0.025095 0.012286 0.000003 -0.000003 -0.000005 0.000001 0.000003 0.000001 0.000003 0.000003 -0.000000 -0.000004 0.000002 0.000002 -0.039192 -0.011488 0.008390 0.000003 -0.000000 -0.000002 -0.000002 0.000003 -0.000003 -0.000000 -0.000002 -0.000000 -0.000002 0.000004 -0.000003 -0.043421 0.002443 0.002845 0.000002 -0.000001 -0.000001 -0.000002 0.000004 -0.000002 0.000000 -0.000006 0.000004 0.000002 0.000001 0.000001 -0.000000 0.000000 -0.000000 -1.602175 -1.035262 11.687173 -36.688184 1.475572 21.902380 46.764885 0.751323 -7.600961 -0.000005 -0.000002 -0.000002 -0.000001 0.000001 0.000001 -0.000005 0.000000 0.000000 -0.038000 -0.085200 0.016200 0.000001 -0.000000 -0.000002 -0.000000 0.000000 0.000000 -1.598477 -1.034458 12.921439 -0.708606 -0.504862 -6.986944 14.047226 -1.525090 15.582559 0.000003 -0.000001 0.000000 0.000002 0.000001 0.000000 0.000005 0.000001 0.000002 0.038000 -0.085200 0.016200 0.000000 0.000001 0.000001 
